<?xml version="1.0" standalone="no"?>
<!DOCTYPE svg PUBLIC "-//W3C//DTD SVG 20010904//EN"
 "http://www.w3.org/TR/2001/REC-SVG-20010904/DTD/svg10.dtd">
<svg version="1.0" xmlns="http://www.w3.org/2000/svg"
 width="225.000000pt" height="240.000000pt" viewBox="0 0 225.000000 240.000000"
 preserveAspectRatio="xMidYMid meet">

<g transform="translate(0.000000,240.000000) scale(0.100000,-0.100000)"
fill="#000000" stroke="none">
<path d="M1141 2088 c-25 -9 -172 -109 -208 -141 l-23 -20 0 -802 c0 -893 -4
-845 67 -845 35 0 101 40 211 127 l42 34 0 802 c0 690 -2 805 -15 824 -18 25
-43 33 -74 21z"/>
<path d="M555 1689 c-55 -39 -110 -79 -122 -89 l-23 -20 0 -383 c0 -315 3
-387 14 -403 13 -17 27 -19 144 -19 95 0 133 4 145 14 15 12 17 58 17 482 0
453 -1 469 -19 479 -34 18 -54 10 -156 -61z"/>
<path d="M1450 1593 c-39 -14 -40 -22 -40 -493 0 -430 1 -458 18 -473 10 -10
26 -17 36 -17 16 0 219 135 251 167 13 12 15 72 15 403 l0 389 -22 15 c-17 12
-48 16 -133 15 -60 0 -117 -3 -125 -6z"/>
</g>
</svg>
